<svg width="28" height="28" viewBox="0 0 28 28" fill="none" xmlns="http://www.w3.org/2000/svg">
<path d="M20.8319 7.29663V17.6528C20.8319 17.864 20.748 18.0667 20.5986 18.2161C20.4492 18.3655 20.2465 18.4494 20.0352 18.4494C19.824 18.4494 19.6213 18.3655 19.4719 18.2161C19.3225 18.0667 19.2386 17.864 19.2386 17.6528V9.21949L7.85287 20.6063C7.70339 20.7557 7.50064 20.8398 7.28926 20.8398C7.07787 20.8398 6.87512 20.7557 6.72564 20.6063C6.57617 20.4567 6.49219 20.2541 6.49219 20.0427C6.49219 19.8312 6.57617 19.6285 6.72564 19.4789L18.1124 8.09325H9.67913C9.46785 8.09325 9.26524 8.00934 9.11583 7.85993C8.96643 7.71053 8.8825 7.50792 8.8825 7.29663C8.8825 7.08535 8.96643 6.88274 9.11583 6.73333C9.26524 6.58393 9.46785 6.5 9.67913 6.5H20.0352C20.2465 6.5 20.4492 6.58393 20.5986 6.73333C20.748 6.88274 20.8319 7.08535 20.8319 7.29663Z" fill="#14CF93"/>
</svg>
