<svg width="28" height="28" viewBox="0 0 28 28" fill="none" xmlns="http://www.w3.org/2000/svg">
<path d="M20.8323 7.29517V17.6514C20.8323 17.8626 20.7484 18.0652 20.599 18.2146C20.4496 18.3641 20.2469 18.4479 20.0356 18.4479C19.8244 18.4479 19.6217 18.3641 19.4723 18.2146C19.3229 18.0652 19.239 17.8626 19.239 17.6514V9.21803L7.85324 20.6048C7.70376 20.7542 7.50101 20.8383 7.28963 20.8383C7.07823 20.8383 6.87549 20.7542 6.726 20.6048C6.57654 20.4552 6.49255 20.2526 6.49255 20.0412C6.49255 19.8297 6.57654 19.6271 6.726 19.4775L18.1128 8.09179H9.6795C9.46822 8.09179 9.2656 8.00787 9.1162 7.85847C8.9668 7.70907 8.88287 7.50645 8.88287 7.29517C8.88287 7.08389 8.9668 6.88127 9.1162 6.73187C9.2656 6.58247 9.46822 6.49854 9.6795 6.49854H20.0356C20.2469 6.49854 20.4496 6.58247 20.599 6.73187C20.7484 6.88127 20.8323 7.08389 20.8323 7.29517Z" fill="#FCFCFD"/>
</svg>
