<svg width="42" height="42" viewBox="0 0 42 42" fill="none" xmlns="http://www.w3.org/2000/svg">
<path d="M17.4375 25.3125C17.4375 25.6606 17.2992 25.9944 17.0531 26.2406C16.8069 26.4867 16.4731 26.625 16.125 26.625H9.5625C9.2144 26.625 8.88056 26.4867 8.63442 26.2406C8.38828 25.9944 8.25 25.6606 8.25 25.3125C8.25 24.9644 8.38828 24.6306 8.63442 24.3844C8.88056 24.1383 9.2144 24 9.5625 24H16.125C16.4731 24 16.8069 24.1383 17.0531 24.3844C17.2992 24.6306 17.4375 24.9644 17.4375 25.3125ZM27.9375 5.625H31.875C32.2231 5.625 32.5569 5.48672 32.8031 5.24058C33.0492 4.99444 33.1875 4.6606 33.1875 4.3125C33.1875 3.9644 33.0492 3.63056 32.8031 3.38442C32.5569 3.13828 32.2231 3 31.875 3H26.625C26.2769 3 25.9431 3.13828 25.6969 3.38442C25.4508 3.63056 25.3125 3.9644 25.3125 4.3125V9.5625H27.9375V5.625ZM39.75 19.4062V29.25C39.75 29.9462 39.4734 30.6139 38.9812 31.1062C38.4889 31.5984 37.8212 31.875 37.125 31.875H22.6875V37.125C22.6875 37.4731 22.5492 37.8069 22.3031 38.0531C22.0569 38.2992 21.7231 38.4375 21.375 38.4375C21.0269 38.4375 20.6931 38.2992 20.4469 38.0531C20.2008 37.8069 20.0625 37.4731 20.0625 37.125V31.875H5.625C4.92881 31.875 4.26113 31.5984 3.76884 31.1062C3.27656 30.6139 3 29.9462 3 29.25V19.4062C3.00304 16.7965 4.04112 14.2944 5.88652 12.449C7.73193 10.6036 10.234 9.56554 12.8438 9.5625H25.3125V24C25.3125 24.3481 25.4508 24.6819 25.6969 24.9281C25.9431 25.1742 26.2769 25.3125 26.625 25.3125C26.9731 25.3125 27.3069 25.1742 27.5531 24.9281C27.7992 24.6819 27.9375 24.3481 27.9375 24V9.5625H29.9062C32.516 9.56554 35.0181 10.6036 36.8635 12.449C38.7089 14.2944 39.747 16.7965 39.75 19.4062ZM20.0625 19.4062C20.0625 17.4917 19.302 15.6556 17.9482 14.3018C16.5944 12.948 14.7583 12.1875 12.8438 12.1875C10.9292 12.1875 9.0931 12.948 7.73932 14.3018C6.38554 15.6556 5.625 17.4917 5.625 19.4062V29.25H20.0625V19.4062Z" fill="white"/>
</svg>
