<svg width="16" height="16" viewBox="0 0 16 16" fill="none" xmlns="http://www.w3.org/2000/svg">
<path d="M10.4759 8.47399C10.5366 8.41058 10.5842 8.33582 10.6159 8.25399C10.6826 8.09168 10.6826 7.90963 10.6159 7.74732C10.5842 7.66549 10.5366 7.59072 10.4759 7.52732L8.47594 5.52732C8.3504 5.40178 8.18014 5.33126 8.00261 5.33126C7.82507 5.33126 7.65481 5.40178 7.52927 5.52732C7.40374 5.65286 7.33321 5.82312 7.33321 6.00065C7.33321 6.17819 7.40374 6.34845 7.52927 6.47399L8.39594 7.33399H6.00261C5.8258 7.33399 5.65623 7.40423 5.5312 7.52925C5.40618 7.65427 5.33594 7.82384 5.33594 8.00065C5.33594 8.17746 5.40618 8.34703 5.5312 8.47206C5.65623 8.59708 5.8258 8.66732 6.00261 8.66732H8.39594L7.52927 9.52732C7.46679 9.5893 7.41719 9.66303 7.38335 9.74427C7.3495 9.82551 7.33207 9.91265 7.33207 10.0007C7.33207 10.0887 7.3495 10.1758 7.38335 10.257C7.41719 10.3383 7.46679 10.412 7.52927 10.474C7.59125 10.5365 7.66498 10.5861 7.74622 10.6199C7.82746 10.6538 7.9146 10.6712 8.00261 10.6712C8.09061 10.6712 8.17775 10.6538 8.25899 10.6199C8.34023 10.5861 8.41396 10.5365 8.47594 10.474L10.4759 8.47399ZM14.6693 8.00065C14.6693 6.68211 14.2783 5.39318 13.5457 4.29685C12.8132 3.20052 11.772 2.34604 10.5538 1.84146C9.33566 1.33687 7.99521 1.20485 6.702 1.46209C5.4088 1.71932 4.22091 2.35426 3.28856 3.28661C2.35621 4.21896 1.72127 5.40685 1.46404 6.70005C1.2068 7.99326 1.33883 9.3337 1.84341 10.5519C2.34799 11.7701 3.20248 12.8112 4.29881 13.5438C5.39513 14.2763 6.68406 14.6673 8.00261 14.6673C9.77072 14.6673 11.4664 13.9649 12.7167 12.7147C13.9669 11.4645 14.6693 9.76876 14.6693 8.00065ZM2.66927 8.00065C2.66927 6.94582 2.98207 5.91467 3.5681 5.03761C4.15414 4.16055 4.98709 3.47696 5.96163 3.0733C6.93617 2.66963 8.00852 2.56401 9.04309 2.7698C10.0777 2.97559 11.028 3.48354 11.7738 4.22942C12.5197 4.9753 13.0277 5.92561 13.2335 6.96017C13.4392 7.99474 13.3336 9.06709 12.93 10.0416C12.5263 11.0162 11.8427 11.8491 10.9656 12.4352C10.0886 13.0212 9.05744 13.334 8.00261 13.334C6.58812 13.334 5.23156 12.7721 4.23137 11.7719C3.23118 10.7717 2.66927 9.41514 2.66927 8.00065Z" fill="#728095"/>
</svg>
