<svg width="30" height="23" viewBox="0 0 30 23" fill="none" xmlns="http://www.w3.org/2000/svg">
<path d="M2.91196 18.659C3.24676 17.5558 3.58154 16.4542 3.92349 15.3325C3.50143 15.2739 3.14661 15.2495 2.80324 15.1723C1.49842 14.8776 0.565587 13.8088 0.552711 12.4783C0.522666 9.64257 0.516943 6.80545 0.552711 3.96832C0.574172 2.40741 1.81174 1.24996 3.44849 1.21276C5.21113 1.17699 6.9752 1.20132 8.74215 1.20132C10.8396 1.20132 12.937 1.19273 15.0373 1.20132C17.1762 1.21133 18.285 2.33445 18.2865 4.47338C18.2865 7.04868 18.2865 9.62396 18.2865 12.1993C18.2865 14.0749 17.0789 15.2667 15.1904 15.2724C12.9742 15.2724 10.7552 15.2581 8.54042 15.2882C8.16955 15.2997 7.80927 15.4147 7.50028 15.6201C6.00947 16.6402 4.54727 17.7018 3.07506 18.7476L2.91196 18.659ZM8.3344 6.71388C8.42739 6.50214 8.48749 6.34762 8.55902 6.20025C8.91098 5.47489 9.62634 5.07429 10.3775 5.34184C10.7537 5.47202 11.1744 5.83111 11.3074 6.18738C11.409 6.45921 11.1644 6.94566 10.9426 7.23466C10.6565 7.6038 10.2272 7.86133 9.8853 8.1861C9.25148 8.78271 9.02687 9.51379 9.16994 10.3894H10.6679C10.5091 9.53096 11.0442 9.08887 11.585 8.63819C11.8779 8.39513 12.1533 8.13169 12.4091 7.84986C13.2131 6.96138 13.1917 5.84688 12.3747 4.96269C11.2201 3.72368 8.81798 3.64212 7.65337 4.86968C7.26136 5.28459 7.05533 5.87119 6.70481 6.48783L8.3344 6.71388ZM10.7666 11.0404H9.16994V12.5641H10.7666V11.0404Z" fill="white"/>
<path d="M18.912 4.98407C18.8991 4.75516 18.8819 4.61638 18.8848 4.47902C18.8848 4.31592 18.9048 4.15282 18.922 3.90674H20.2812C22.0452 3.90674 23.8094 3.90674 25.5749 3.90674C27.7123 3.91675 28.8526 5.05131 28.8526 7.17164C28.8526 9.67347 28.8526 12.1768 28.8526 14.6815C28.8526 16.7704 27.8511 17.8391 25.7536 17.9921C25.6604 18.0085 25.5682 18.0304 25.4776 18.058C25.6508 18.6303 25.8195 19.1925 25.9897 19.752C26.1599 20.3114 26.3346 20.8764 26.562 21.6234C25.356 20.7649 24.2357 20.0925 23.2542 19.2541C22.0781 18.2526 20.822 17.8563 19.2725 17.9664C17.5643 18.0794 15.8388 18.0008 14.1219 17.9879C12.6755 17.9764 11.6182 17.2039 11.2877 15.9219C11.8714 15.8132 12.3293 15.859 12.7814 16.3769C13.0503 16.6845 13.6169 16.869 14.0518 16.8733C17.9849 16.9105 21.9209 16.9034 25.8524 16.8934C27.0085 16.8934 27.7424 16.178 27.7482 15.0249C27.7652 12.3065 27.7652 9.58811 27.7482 6.86975C27.741 5.72518 26.9927 5.00983 25.8452 4.9998C23.5646 4.97549 21.2785 4.98407 18.912 4.98407Z" fill="white"/>
<path d="M26.7188 11.0851C26.7189 11.2099 26.6937 11.3335 26.6447 11.4482C26.5956 11.563 26.5238 11.6666 26.4335 11.7528C26.3431 11.8389 26.2363 11.9059 26.1193 11.9495C26.0023 11.9931 25.8778 12.0125 25.7531 12.0065C25.6281 12.0091 25.5039 11.9857 25.3884 11.9379C25.2731 11.89 25.1687 11.8187 25.0822 11.7285C24.9957 11.6382 24.929 11.531 24.8861 11.4136C24.8432 11.2962 24.8252 11.1712 24.8332 11.0465C24.8316 10.9215 24.8556 10.7975 24.904 10.6822C24.9523 10.5669 25.0236 10.4627 25.1137 10.3761C25.2038 10.2895 25.3108 10.2223 25.4277 10.1786C25.5449 10.1349 25.6697 10.1157 25.7946 10.1222C25.9193 10.1221 26.0426 10.1472 26.1575 10.1961C26.2722 10.2449 26.3759 10.3165 26.4622 10.4064C26.5485 10.4964 26.6157 10.6029 26.6598 10.7195C26.704 10.8361 26.724 10.9605 26.7188 11.0851Z" fill="white"/>
<path d="M21.2947 11.0568C21.2957 11.2433 21.2412 11.4259 21.1381 11.5815C21.0352 11.737 20.8884 11.8585 20.7164 11.9306C20.5444 12.0027 20.3548 12.0222 20.1716 11.9865C19.9886 11.9509 19.8202 11.8617 19.6878 11.7303C19.5555 11.5989 19.465 11.4312 19.4278 11.2483C19.3908 11.0655 19.4088 10.8758 19.4796 10.7032C19.5504 10.5306 19.6708 10.3829 19.8256 10.2788C19.9804 10.1747 20.1626 10.1188 20.3491 10.1182C20.4738 10.1145 20.5978 10.1362 20.7136 10.1819C20.8296 10.2277 20.9351 10.2966 21.0236 10.3844C21.1121 10.4722 21.1817 10.5771 21.2284 10.6927C21.2749 10.8083 21.2975 10.9322 21.2947 11.0568Z" fill="white"/>
<path d="M23.0448 12.0081C22.8582 12.005 22.6768 11.9465 22.5235 11.8402C22.3701 11.7339 22.2517 11.5845 22.1833 11.4109C22.115 11.2373 22.0996 11.0473 22.1394 10.8649C22.1791 10.6826 22.272 10.5162 22.4062 10.3867C22.5405 10.2572 22.7102 10.1704 22.8939 10.1374C23.0776 10.1044 23.2668 10.1267 23.4378 10.2013C23.6089 10.276 23.7539 10.3997 23.8545 10.5568C23.9552 10.7139 24.007 10.8973 24.0034 11.0839C24.0044 11.2085 23.9801 11.332 23.9318 11.4469C23.8836 11.5618 23.8125 11.6657 23.7227 11.7522C23.6331 11.8386 23.5266 11.906 23.4101 11.95C23.2935 11.994 23.1691 12.0138 23.0448 12.0081Z" fill="white"/>
</svg>
