<svg width="44" height="44" viewBox="0 0 44 44" fill="none" xmlns="http://www.w3.org/2000/svg">
<path d="M22.012 5.46702C27.4034 5.46702 28.0419 5.49066 30.1622 5.58525C32.1328 5.67196 33.1969 6.00301 33.9063 6.27889C34.8442 6.64147 35.5221 7.08287 36.2236 7.78439C36.933 8.49379 37.3666 9.16378 37.7291 10.1018C38.005 10.8112 38.3361 11.8831 38.4228 13.8458C38.5174 15.974 38.541 16.6125 38.541 21.996C38.541 27.3875 38.5174 28.0259 38.4228 30.1463C38.3361 32.1168 38.005 33.1809 37.7291 33.8903C37.3666 34.8283 36.9252 35.5062 36.2236 36.2077C35.5142 36.9171 34.8442 37.3506 33.9063 37.7132C33.1969 37.9891 32.1249 38.3201 30.1622 38.4068C28.034 38.5014 27.3955 38.5251 22.012 38.5251C16.6205 38.5251 15.9821 38.5014 13.8618 38.4068C11.8912 38.3201 10.8271 37.9891 10.1177 37.7132C9.17973 37.3506 8.50186 36.9092 7.80034 36.2077C7.09094 35.4983 6.65742 34.8283 6.29483 33.8903C6.01896 33.1809 5.6879 32.1089 5.6012 30.1463C5.50661 28.0181 5.48297 27.3796 5.48297 21.996C5.48297 16.6046 5.50661 15.9661 5.6012 13.8458C5.6879 11.8753 6.01896 10.8112 6.29483 10.1018C6.65742 9.16378 7.09882 8.48591 7.80034 7.78439C8.50974 7.07499 9.17973 6.64147 10.1177 6.27889C10.8271 6.00301 11.8991 5.67196 13.8618 5.58525C15.9821 5.49066 16.6205 5.46702 22.012 5.46702ZM22.012 1.83331C16.5338 1.83331 15.8481 1.85696 13.6962 1.95155C11.5523 2.04613 10.0783 2.39295 8.80138 2.88953C7.46929 3.40976 6.34213 4.09551 5.22285 5.22267C4.09569 6.34194 3.40994 7.4691 2.88971 8.79332C2.39313 10.0781 2.04632 11.5442 1.95173 13.6882C1.85714 15.8479 1.8335 16.5337 1.8335 22.0118C1.8335 27.4899 1.85714 28.1757 1.95173 30.3275C2.04632 32.4715 2.39313 33.9455 2.88971 35.2224C3.40994 36.5545 4.09569 37.6817 5.22285 38.8009C6.34213 39.9202 7.46929 40.6138 8.7935 41.1262C10.0783 41.6228 11.5444 41.9696 13.6884 42.0642C15.8402 42.1588 16.526 42.1824 22.0041 42.1824C27.4822 42.1824 28.168 42.1588 30.3198 42.0642C32.4638 41.9696 33.9378 41.6228 35.2147 41.1262C36.5389 40.6138 37.6661 39.9202 38.7854 38.8009C39.9046 37.6817 40.5983 36.5545 41.1106 35.2303C41.6072 33.9455 41.954 32.4794 42.0486 30.3354C42.1432 28.1836 42.1668 27.4978 42.1668 22.0197C42.1668 16.5415 42.1432 15.8558 42.0486 13.7039C41.954 11.56 41.6072 10.086 41.1106 8.80908C40.614 7.4691 39.9283 6.34194 38.8011 5.22267C37.6818 4.10339 36.5547 3.40976 35.2305 2.89741C33.9457 2.40083 32.4796 2.05402 30.3356 1.95943C28.1759 1.85696 27.4901 1.83331 22.012 1.83331Z" fill="white"/>
<path d="M22.012 11.6467C16.2895 11.6467 11.6469 16.2893 11.6469 22.0118C11.6469 27.7343 16.2895 32.3769 22.012 32.3769C27.7345 32.3769 32.3771 27.7343 32.3771 22.0118C32.3771 16.2893 27.7345 11.6467 22.012 11.6467ZM22.012 28.7353C18.2995 28.7353 15.2884 25.7243 15.2884 22.0118C15.2884 18.2993 18.2995 15.2883 22.012 15.2883C25.7245 15.2883 28.7355 18.2993 28.7355 22.0118C28.7355 25.7243 25.7245 28.7353 22.012 28.7353Z" fill="white"/>
<path d="M35.2068 11.2368C35.2068 12.5768 34.1191 13.6567 32.787 13.6567C31.447 13.6567 30.3671 12.5689 30.3671 11.2368C30.3671 9.89685 31.4549 8.81698 32.787 8.81698C34.1191 8.81698 35.2068 9.90473 35.2068 11.2368Z" fill="white"/>
</svg>
