<svg width="36" height="36" viewBox="0 0 36 36" fill="none" xmlns="http://www.w3.org/2000/svg">
<path d="M32.064 1.5H3.93604C3.28996 1.5 2.67035 1.75665 2.2135 2.2135C1.75665 2.67035 1.5 3.28996 1.5 3.93604V32.064C1.5 32.71 1.75665 33.3297 2.2135 33.7865C2.67035 34.2433 3.28996 34.5 3.93604 34.5H32.064C32.71 34.5 33.3297 34.2433 33.7865 33.7865C34.2433 33.3297 34.5 32.71 34.5 32.064V3.93604C34.5 3.28996 34.2433 2.67035 33.7865 2.2135C33.3297 1.75665 32.71 1.5 32.064 1.5ZM11.3358 29.6119H6.37438V13.8521H11.3358V29.6119ZM8.85167 11.6681C8.28888 11.665 7.73963 11.4951 7.27326 11.1801C6.80689 10.8651 6.44428 10.419 6.23121 9.89807C6.01813 9.37716 5.96414 8.80481 6.07604 8.25325C6.18794 7.70169 6.46073 7.19563 6.85996 6.79895C7.2592 6.40227 7.767 6.13274 8.31927 6.02438C8.87154 5.91602 9.44353 5.97369 9.96306 6.1901C10.4826 6.40652 10.9264 6.77198 11.2384 7.24037C11.5504 7.70875 11.7167 8.25908 11.7163 8.82188C11.7216 9.19867 11.651 9.57268 11.5086 9.92161C11.3663 10.2705 11.1552 10.5872 10.8879 10.8528C10.6206 11.1184 10.3025 11.3275 9.95271 11.4676C9.60287 11.6077 9.22842 11.6759 8.85167 11.6681ZM29.6233 29.6256H24.6642V21.0158C24.6642 18.4767 23.5848 17.6929 22.1915 17.6929C20.7202 17.6929 19.2765 18.8021 19.2765 21.08V29.6256H14.315V13.8635H19.0863V16.0475H19.1504C19.6294 15.0781 21.3069 13.4213 23.8667 13.4213C26.635 13.4213 29.6256 15.0644 29.6256 19.8769L29.6233 29.6256Z" fill="white"/>
</svg>
