<svg width="42" height="42" viewBox="0 0 42 42" fill="none" xmlns="http://www.w3.org/2000/svg">
<path d="M38.0428 28.724C37.7503 30.9471 36.6585 32.9877 34.9714 34.4647C33.2843 35.9417 31.1173 36.754 28.875 36.75C15.8485 36.75 5.25001 26.1515 5.25001 13.125C5.246 10.8827 6.05833 8.71567 7.5353 7.02857C9.01226 5.34147 11.0529 4.2497 13.276 3.95716C13.8381 3.88852 14.4074 4.00353 14.8988 4.28502C15.3903 4.56651 15.7775 4.99939 16.0027 5.51904L19.4677 13.2546V13.2743C19.6401 13.672 19.7113 14.1063 19.6749 14.5383C19.6386 14.9703 19.4958 15.3866 19.2593 15.75C19.2298 15.7943 19.1986 15.8353 19.1658 15.8763L15.75 19.9254C16.9788 22.4224 19.5907 25.0113 22.1206 26.2434L26.1138 22.8457C26.1531 22.8127 26.1941 22.782 26.2369 22.7538C26.5999 22.5117 27.0177 22.3638 27.4522 22.3237C27.8868 22.2836 28.3245 22.3525 28.7257 22.5241L28.747 22.534L36.476 25.9973C36.9966 26.2217 37.4305 26.6086 37.7129 27.1001C37.9954 27.5916 38.1111 28.1613 38.0428 28.724Z" fill="white"/>
</svg>
