<svg width="32" height="32" viewBox="0 0 32 32" fill="none" xmlns="http://www.w3.org/2000/svg">
<path d="M19.9987 2.66602H7.9987C7.29145 2.66602 6.61318 2.94697 6.11308 3.44706C5.61298 3.94716 5.33203 4.62544 5.33203 5.33268V26.666C5.33203 27.3733 5.61298 28.0515 6.11308 28.5516C6.61318 29.0517 7.29145 29.3327 7.9987 29.3327H23.9987C24.7059 29.3327 25.3842 29.0517 25.8843 28.5516C26.3844 28.0515 26.6654 27.3733 26.6654 26.666V9.33268L19.9987 2.66602Z" stroke="#14CF93" stroke-width="2.66667" stroke-linecap="round" stroke-linejoin="round"/>
<path d="M18.668 2.66602V7.99935C18.668 8.70659 18.9489 9.38487 19.449 9.88497C19.9491 10.3851 20.6274 10.666 21.3346 10.666H26.668" stroke="#14CF93" stroke-width="2.66667" stroke-linecap="round" stroke-linejoin="round"/>
<path d="M13.3346 12H10.668" stroke="#14CF93" stroke-width="2.66667" stroke-linecap="round" stroke-linejoin="round"/>
<path d="M21.3346 17.334H10.668" stroke="#14CF93" stroke-width="2.66667" stroke-linecap="round" stroke-linejoin="round"/>
<path d="M21.3346 22.666H10.668" stroke="#14CF93" stroke-width="2.66667" stroke-linecap="round" stroke-linejoin="round"/>
</svg>
