<svg width="32" height="32" viewBox="0 0 32 32" fill="none" xmlns="http://www.w3.org/2000/svg">
<path d="M20.0013 2.66602H12.0013C11.2649 2.66602 10.668 3.26297 10.668 3.99935V6.66602C10.668 7.4024 11.2649 7.99935 12.0013 7.99935H20.0013C20.7377 7.99935 21.3346 7.4024 21.3346 6.66602V3.99935C21.3346 3.26297 20.7377 2.66602 20.0013 2.66602Z" stroke="#14CF93" stroke-width="2.66667" stroke-linecap="round" stroke-linejoin="round"/>
<path d="M21.332 5.33398H23.9987C24.7059 5.33398 25.3842 5.61494 25.8843 6.11503C26.3844 6.61513 26.6654 7.29341 26.6654 8.00065V26.6673C26.6654 27.3746 26.3844 28.0528 25.8843 28.5529C25.3842 29.053 24.7059 29.334 23.9987 29.334H7.9987C7.29145 29.334 6.61318 29.053 6.11308 28.5529C5.61298 28.0528 5.33203 27.3746 5.33203 26.6673V8.00065C5.33203 7.29341 5.61298 6.61513 6.11308 6.11503C6.61318 5.61494 7.29145 5.33398 7.9987 5.33398H10.6654" stroke="#14CF93" stroke-width="2.66667" stroke-linecap="round" stroke-linejoin="round"/>
<path d="M12 18.6667L14.6667 21.3333L20 16" stroke="#14CF93" stroke-width="2.66667" stroke-linecap="round" stroke-linejoin="round"/>
</svg>
