<svg width="28" height="28" viewBox="0 0 28 28" fill="none" xmlns="http://www.w3.org/2000/svg">
<path d="M22.3125 7V18.375C22.3125 18.7231 22.1742 19.0569 21.928 19.3031C21.6819 19.5492 21.348 19.6875 21 19.6875C20.6519 19.6875 20.318 19.5492 20.0719 19.3031C19.8257 19.0569 19.6875 18.7231 19.6875 18.375V10.1719L7.92855 21.9286C7.68198 22.1752 7.34756 22.3137 6.99886 22.3137C6.65016 22.3137 6.31574 22.1752 6.06917 21.9286C5.8226 21.682 5.68408 21.3476 5.68408 20.9989C5.68408 20.6502 5.8226 20.3158 6.06917 20.0692L17.8281 8.3125H9.62495C9.27686 8.3125 8.94302 8.17422 8.69687 7.92808C8.45073 7.68194 8.31245 7.3481 8.31245 7C8.31245 6.6519 8.45073 6.31806 8.69687 6.07192C8.94302 5.82578 9.27686 5.6875 9.62495 5.6875H21C21.348 5.6875 21.6819 5.82578 21.928 6.07192C22.1742 6.31806 22.3125 6.6519 22.3125 7Z" fill="white"/>
</svg>
