<svg width="25" height="27" viewBox="0 0 25 27" fill="none" xmlns="http://www.w3.org/2000/svg">
<path d="M21.0375 27C19.9368 27 19.0022 26.628 18.2338 25.8841C17.4657 25.1402 17.0816 24.2369 17.0816 23.1742C17.0816 23.0321 17.1325 22.6868 17.2342 22.1382L6.7761 16.189C6.42169 16.5442 6.00061 16.8225 5.51287 17.0239C5.02512 17.2252 4.50257 17.3258 3.94522 17.3258C2.84939 17.3258 1.91789 16.9523 1.15074 16.2053C0.383579 15.4583 0 14.5566 0 13.5C0 12.4434 0.383579 11.5417 1.15074 10.7947C1.91789 10.0477 2.84939 9.67417 3.94522 9.67417C4.50257 9.67417 5.02512 9.77483 5.51287 9.97614C6.00061 10.1775 6.42169 10.4557 6.7761 10.811L17.2342 4.87528C17.1759 4.70049 17.1358 4.52925 17.114 4.36157C17.0924 4.19388 17.0816 4.0153 17.0816 3.82583C17.0816 2.76312 17.4668 1.8598 18.2371 1.11588C19.0077 0.37196 19.9434 0 21.0441 0C22.1449 0 23.0793 0.372316 23.8474 1.11695C24.6158 1.86134 25 2.76537 25 3.82903C25 4.89268 24.6151 5.79576 23.8452 6.53826C23.0754 7.28053 22.1406 7.65166 21.0408 7.65166C20.4808 7.65166 19.9599 7.54875 19.4783 7.34293C18.9964 7.13712 18.5783 6.85658 18.2239 6.50132L7.76581 12.4506C7.82414 12.6256 7.86422 12.7968 7.88603 12.9643C7.9076 13.1319 7.91838 13.3105 7.91838 13.5C7.91838 13.6895 7.9076 13.8681 7.88603 14.0357C7.86422 14.2032 7.82414 14.3744 7.76581 14.5494L18.2239 20.4987C18.5783 20.1434 18.9964 19.8629 19.4783 19.6571C19.9599 19.4513 20.4808 19.3483 21.0408 19.3483C22.1406 19.3483 23.0754 19.7205 23.8452 20.4649C24.6151 21.2096 25 22.1137 25 23.1774C25 24.241 24.6147 25.144 23.8441 25.8863C23.0738 26.6288 22.1382 27 21.0375 27Z" fill="white"/>
</svg>
